<svg xmlns="http://www.w3.org/2000/svg" width="1200" height="800" viewBox="0 0 1200 800">
  <defs>
    <linearGradient id="bg" x1="0" y1="0" x2="1" y2="1">
      <stop offset="0" stop-color="#fdf2f6"/>
      <stop offset="1" stop-color="#f8e8d0"/>
    </linearGradient>
    <linearGradient id="cake" x1="0" y1="0" x2="0" y2="1">
      <stop offset="0" stop-color="#f6d7a8"/>
      <stop offset="1" stop-color="#e7b979"/>
    </linearGradient>
    <linearGradient id="cream" x1="0" y1="0" x2="0" y2="1">
      <stop offset="0" stop-color="#fffaf3"/>
      <stop offset="1" stop-color="#f5e7d8"/>
    </linearGradient>
  </defs>
  <rect width="1200" height="800" fill="url(#bg)"/>
  <g transform="translate(240 110)">
    <rect x="0" y="0" rx="28" ry="28" width="720" height="580" fill="#ffffff" opacity="0.85"/>
    <g transform="translate(130 110)">
      <ellipse cx="230" cy="355" rx="260" ry="46" fill="#2d1b0e" opacity="0.08"/>
      <rect x="0" y="300" width="460" height="95" rx="26" fill="url(#cake)"/>
      <rect x="22" y="245" width="416" height="80" rx="22" fill="url(#cream)"/>
      <rect x="0" y="195" width="460" height="85" rx="26" fill="url(#cake)"/>
      <rect x="30" y="145" width="400" height="68" rx="20" fill="url(#cream)"/>
      <rect x="0" y="105" width="460" height="70" rx="26" fill="url(#cake)"/>
      <g fill="#8b5e3c" opacity="0.55">
        <circle cx="85" cy="165" r="6"/>
        <circle cx="140" cy="225" r="6"/>
        <circle cx="210" cy="170" r="6"/>
        <circle cx="270" cy="235" r="6"/>
        <circle cx="340" cy="175" r="6"/>
        <circle cx="395" cy="225" r="6"/>
      </g>
      <path d="M35 110 C80 145, 120 78, 165 110 C210 145, 250 78, 295 110 C340 145, 380 78, 425 110"
            fill="none" stroke="#fffaf3" stroke-width="18" stroke-linecap="round" opacity="0.9"/>
    </g>
    <text x="360" y="520" text-anchor="middle" font-family="Inter, Arial, sans-serif" font-size="34" fill="#2d1b0e" opacity="0.75">
      Vanilla Cake
    </text>
  </g>
</svg>
